<?xml version="1.0" encoding="utf-8"?>
<!DOCTYPE svg PUBLIC "-//W3C//DTD SVG 1.1//EN" "http://www.w3.org/Graphics/SVG/1.1/DTD/svg11.dtd" [
	<!ENTITY ns_svg "http://www.w3.org/2000/svg">
	<!ENTITY ns_xlink "http://www.w3.org/1999/xlink">
]>
<svg  version="1.1" id="Layer_1" xmlns="&ns_svg;" xmlns:xlink="&ns_xlink;" width="16" height="12"
	 viewBox="0 0 16.532 12.5" overflow="visible" xml:space="preserve">
<g id="XMLID_5_">
	<g>
		<path fill="#FFFFFF" d="M15.8,10.334c0,0.481,0,0.964,0,1.444c-0.908,0-1.817,0-2.724,0c0.021-0.473-0.043-1.019,0.031-1.444
			C14.005,10.334,14.903,10.334,15.8,10.334z"/>
		<path fill="#FFFFFF" d="M15.8,8.39c0,0.472,0,0.944,0,1.416c-0.908,0-1.817,0-2.724,0c0.021-0.463-0.043-1,0.031-1.416
			C14.005,8.39,14.903,8.39,15.8,8.39z"/>
		<path fill="#FFFFFF" d="M15.8,6.473c0,0.481,0,0.963,0,1.444c-0.908,0-1.817,0-2.724,0c0.021-0.472-0.043-1.018,0.031-1.444
			C14.005,6.473,14.903,6.473,15.8,6.473z"/>
		<path fill="#FFFFFF" d="M12.596,5.223c-0.172-0.279-0.34-0.559-0.579-0.777c0.654-0.629,1.375-1.199,2.021-1.833
			c0.601,0.47,1.199,0.941,1.73,1.472C14.701,4.454,13.666,4.854,12.596,5.223z"/>
		<path fill="#FFFFFF" d="M13.685,2.223c-0.645,0.636-1.362,1.209-2.02,1.833c-0.267-0.186-0.511-0.392-0.802-0.555
			c0.389-0.94,0.815-1.849,1.218-2.779C12.629,1.211,13.137,1.733,13.685,2.223z"/>
		<path fill="#FFFFFF" d="M15.768,4.5C15.843,4.945,15.78,5.51,15.8,6c-0.951,0-1.902,0-2.854,0
			c-0.064-0.092-0.086-0.222-0.129-0.333C13.812,5.288,14.779,4.884,15.768,4.5z"/>
		<path fill="#FFFFFF" d="M10.414,3.278c-0.285-0.112-0.575-0.223-0.897-0.306c0.122-0.737,0.213-1.501,0.321-2.25
			c0.576,0,1.153,0,1.731,0C11.206,1.594,10.792,2.42,10.414,3.278z"/>
		<path fill="#FFFFFF" d="M9.356,0.722C9.214,1.336,9.15,2.193,9.003,2.89C8.567,2.822,8.132,2.843,7.657,2.862
			C7.58,2.106,7.409,1.407,7.336,0.722C8.009,0.722,8.684,0.722,9.356,0.722z"/>
		<path fill="#FFFFFF" d="M7.08,2.973C6.762,3.058,6.43,3.132,6.183,3.278C5.699,2.484,5.363,1.562,4.9,0.75
			c0.556-0.064,1.251-0.009,1.859-0.028C6.856,1.541,7.007,2.163,7.08,2.973z"/>
		<path fill="#FFFFFF" d="M4.868,4.056C4.229,3.442,3.491,2.915,2.879,2.278c0.527-0.433,1.041-0.877,1.54-1.333
			c0.457,0.808,0.82,1.696,1.25,2.528C5.441,3.701,5.14,3.865,4.868,4.056z"/>
		<path fill="#FFFFFF" d="M0.827,4.112c-0.135,0.004,0.001-0.042,0-0.083c0.047-0.016,0.079-0.043,0.097-0.083
			c0.095-0.039,0.13-0.129,0.225-0.167c0.125-0.132,0.264-0.252,0.416-0.361c0.28-0.23,0.548-0.47,0.834-0.694
			C2.41,2.686,2.456,2.679,2.463,2.64c0.711,0.587,1.402,1.192,2.052,1.833C4.27,4.686,4.13,4.991,3.938,5.25
			C2.88,4.889,1.847,4.506,0.827,4.112z"/>
		<path fill="#FFFFFF" d="M0.764,11.779c0.021-0.473-0.043-1.019,0.032-1.444c0.898,0,1.794,0,2.693,0c0,0.481,0,0.964,0,1.444
			C2.581,11.779,1.672,11.779,0.764,11.779z"/>
		<path fill="#FFFFFF" d="M0.764,9.806c0.021-0.463-0.043-1,0.032-1.416c0.898,0,1.794,0,2.693,0c0,0.472,0,0.944,0,1.416
			C2.581,9.806,1.672,9.806,0.764,9.806z"/>
		<path fill="#FFFFFF" d="M0.764,7.917C0.785,7.446,0.721,6.9,0.796,6.473c0.898,0,1.794,0,2.693,0c0,0.481,0,0.963,0,1.444
			C2.581,7.917,1.672,7.917,0.764,7.917z"/>
		<path fill="#FFFFFF" d="M3.713,5.778C3.666,5.82,3.662,5.9,3.65,5.973C2.751,6.037,1.715,5.982,0.764,6c0-0.472,0-0.944,0-1.417
			c0.026-0.005,0.03,0.011,0.032,0.028C1.33,4.769,1.787,4.994,2.303,5.167c0.233,0.103,0.474,0.2,0.737,0.278
			C3.232,5.584,3.581,5.587,3.713,5.778z"/>
		<path d="M15.8,9.806c0-0.472,0-0.944,0-1.416c-0.897,0-1.795,0-2.692,0c-0.074,0.416-0.011,0.953-0.031,1.416
			C13.983,9.806,14.892,9.806,15.8,9.806z M15.8,11.779c0-0.48,0-0.963,0-1.444c-0.897,0-1.795,0-2.692,0
			c-0.074,0.426-0.011,0.972-0.031,1.444C13.983,11.779,14.892,11.779,15.8,11.779z M15.8,7.917c0-0.481,0-0.963,0-1.444
			c-0.897,0-1.795,0-2.692,0c-0.074,0.427-0.011,0.973-0.031,1.444C13.983,7.917,14.892,7.917,15.8,7.917z M15.8,6
			c-0.021-0.491,0.043-1.055-0.032-1.5c-0.989,0.383-1.956,0.787-2.95,1.167C12.861,5.779,12.882,5.909,12.947,6
			C13.898,6,14.849,6,15.8,6z M7.08,2.973c-0.073-0.81-0.224-1.432-0.321-2.25C6.151,0.741,5.456,0.686,4.9,0.75
			c0.463,0.812,0.799,1.734,1.283,2.528C6.43,3.132,6.762,3.058,7.08,2.973z M4.515,4.473C3.865,3.832,3.174,3.227,2.463,2.64
			C2.456,2.679,2.41,2.686,2.399,2.723C2.113,2.948,1.845,3.188,1.565,3.417C1.413,3.526,1.274,3.646,1.149,3.778
			c-0.095,0.038-0.13,0.128-0.225,0.167c-0.018,0.04-0.05,0.067-0.097,0.083c0.001,0.041-0.135,0.088,0,0.083
			C1.847,4.506,2.88,4.889,3.938,5.25C4.13,4.991,4.27,4.686,4.515,4.473z M0.25,4c1.416-1.247,2.818-2.504,4.233-3.75
			c2.586,0,5.173,0,7.758,0c1.325,1.251,2.688,2.467,4.04,3.695c0,2.769,0,5.537,0,8.305c-5.345,0-10.687,0-16.032,0
			C0.25,9.5,0.25,6.75,0.25,4z M11.666,4.056c0.657-0.625,1.375-1.197,2.02-1.833c-0.548-0.489-1.056-1.011-1.604-1.5
			c-0.402,0.93-0.829,1.838-1.218,2.779C11.155,3.664,11.399,3.87,11.666,4.056z M2.879,2.278c0.612,0.636,1.349,1.164,1.988,1.778
			C5.14,3.865,5.441,3.701,5.669,3.473c-0.43-0.832-0.793-1.72-1.25-2.528C3.92,1.401,3.406,1.845,2.879,2.278z M9.003,2.89
			C9.15,2.193,9.214,1.336,9.356,0.722c-0.672,0-1.347,0-2.02,0c0.073,0.685,0.244,1.384,0.321,2.14
			C8.132,2.843,8.567,2.822,9.003,2.89z M12.017,4.445c0.239,0.218,0.407,0.499,0.579,0.777c1.069-0.368,2.104-0.769,3.172-1.139
			c-0.531-0.531-1.13-1.002-1.73-1.472C13.392,3.247,12.671,3.816,12.017,4.445z M0.796,6.473C0.721,6.9,0.785,7.446,0.764,7.917
			c0.908,0,1.816,0,2.725,0c0-0.481,0-0.963,0-1.444C2.59,6.473,1.694,6.473,0.796,6.473z M3.65,5.973
			C3.662,5.9,3.666,5.82,3.713,5.778C3.581,5.587,3.232,5.584,3.04,5.445C2.777,5.368,2.536,5.271,2.303,5.167
			C1.787,4.994,1.33,4.769,0.796,4.612C0.794,4.595,0.791,4.579,0.764,4.584c0,0.472,0,0.944,0,1.417
			C1.715,5.982,2.751,6.037,3.65,5.973z M9.516,2.973c0.322,0.083,0.612,0.193,0.897,0.306c0.379-0.858,0.792-1.685,1.155-2.556
			c-0.578,0-1.155,0-1.731,0C9.729,1.471,9.638,2.235,9.516,2.973z M0.796,8.39C0.721,8.806,0.785,9.343,0.764,9.806
			c0.908,0,1.816,0,2.725,0c0-0.472,0-0.944,0-1.416C2.59,8.39,1.694,8.39,0.796,8.39z M0.796,10.334
			c-0.075,0.426-0.011,0.972-0.032,1.444c0.908,0,1.816,0,2.725,0c0-0.48,0-0.963,0-1.444C2.59,10.334,1.694,10.334,0.796,10.334z"
			/>
	</g>
	<g>
	</g>
</g>
</svg>
